<?xml version="1.0" standalone="no"?>
<!DOCTYPE svg PUBLIC "-//W3C//DTD SVG 1.1//EN" "http://www.w3.org/Graphics/SVG/1.1/DTD/svg11.dtd" >
<svg xmlns="http://www.w3.org/2000/svg">
<metadata>Generated by IcoMoon</metadata>
<defs>
<font id="iconfonts" horiz-adv-x="1024">
<font-face units-per-em="1024" ascent="960" descent="-64" />
<missing-glyph horiz-adv-x="1024" />
<glyph unicode="&#x20;" d="" horiz-adv-x="512" />
<glyph unicode="&#x21;" d="M512 960c-282.777 0-512-229.223-512-512 0-282.761 229.223-512 512-512 282.727 0 512 229.239 512 512 0 282.777-229.273 512-512 512zM597.333 89.6h-170.665v170.667h170.667l-0.002-170.667zM597.333 345.6h-170.665v409.6h170.667l-0.002-409.6z" />
<glyph unicode="&#x22;" d="M506.192 918.935c-260.128-3.479-468.16-217.2-464.711-477.344 3.488-260.016 217.177-468.119 477.305-464.656 260.080 3.479 468.16 217.207 464.697 477.335-3.477 260.041-217.205 468.123-477.291 464.665zM504.8 161.216h-0.016l-2.592 0.039c-40.055 1.184-68.295 30.697-67.152 70.16 1.12 38.784 30.041 66.944 68.768 66.944l2.329-0.030c41.175-1.225 69.104-30.434 67.945-71.033-1.145-38.905-29.625-66.080-69.282-66.080zM673.296 495.641c-9.417-13.376-30.137-30.002-56.249-50.336l-28.743-19.84c-15.776-12.272-25.289-23.808-28.878-35.161-2.816-8.937-4.192-11.303-4.423-29.49l-0.057-4.624h-109.746l0.32 9.287c1.328 38.174 2.279 60.631 18.087 79.193 24.832 29.143 79.575 64.4 81.897 65.897 7.856 5.904 14.471 12.64 19.392 19.817 11.511 15.881 16.624 28.393 16.624 40.674 0 17.047-5.072 32.816-15.065 46.857-9.618 13.552-27.888 20.416-54.297 20.416-26.201 0-44.151-8.313-54.896-25.374-11.024-17.536-16.617-35.959-16.617-54.775v-4.679l-113.157-0.007 0.208 4.88c2.921 69.312 27.648 119.216 73.504 148.352 28.816 18.528 64.649 27.927 106.464 27.927 54.754 0 100.96-13.303 137.353-39.543 36.864-26.574 55.552-66.4 55.552-118.329-0.002-29.049-9.168-56.345-27.273-81.143z" />
<glyph unicode="&#x23;" d="M512.48 878.016c-237.545 0-430.080-192.583-430.080-430.080 0-237.545 192.535-430.080 430.080-430.080 237.497 0 430.080 192.535 430.080 430.080 0.002 237.497-192.585 430.080-430.080 430.080zM600.976 447.936l156.704-156.695-88.505-88.487-156.679 156.679-156.695-156.69-88.48 88.487 156.679 156.699-156.679 156.654 88.48 88.528 156.681-156.681 156.681 156.663 88.496-88.48-156.683-156.677z" />
<glyph unicode="&#x24;" d="M1010.432 121.248l-383.968 768c-21.664 43.36-65.952 70.752-114.464 70.752s-92.8-27.392-114.464-70.752l-383.968-768c-19.84-39.68-17.728-86.816 5.6-124.576 23.328-37.696 64.512-60.672 108.864-60.672h767.904c44.384 0 85.568 22.976 108.864 60.672 23.328 37.76 25.44 84.896 5.632 124.576zM575.936 96c0-17.696-14.304-32-32-32h-64c-17.696 0-32 14.304-32 32v64c0 17.696 14.304 32 32 32h64c17.696 0 32-14.304 32-32v-64zM575.936 352c0-17.696-14.304-32-32-32h-64c-17.696 0-32 14.304-32 32v320c0 17.664 14.304 32 32 32h64c17.696 0 32-14.336 32-32v-320z" />
<glyph unicode="&#x25;" d="M512 960c-282.752 0-512-229.248-512-512s229.248-512 512-512 512 229.248 512 512-229.248 512-512 512zM432.64 211.744l-235.584 235.616 90.496 90.496 145.056-145.12 307.744 307.744 90.496-90.496-398.208-398.24z" />
<glyph unicode="&#x26;" d="M585.010 728.704c-21.392-20.871-230.512-240.432-230.512-240.432-11.41-11.136-17.122-25.728-17.122-40.336 0-14.615 5.712-29.214 17.122-40.343 0 0 209.12-219.559 230.512-240.432 21.383-20.871 59.874-22.288 82.729 0 22.814 22.263 24.64 53.353-0.023 80.672l-191.845 200.103 191.84 200.087c24.665 27.328 22.839 58.409 0.023 80.681-22.855 22.288-61.342 20.864-82.725 0z" />
<glyph unicode="&#x27;" d="M438.93 728.704c21.392-20.871 230.512-240.432 230.512-240.432 11.41-11.136 17.122-25.728 17.122-40.336 0-14.615-5.712-29.214-17.122-40.343 0 0-209.12-219.559-230.512-240.432s-59.879-22.288-82.729 0c-22.825 22.263-24.64 53.353 0.016 80.672l191.84 200.103-191.84 200.089c-24.656 27.328-22.839 58.409-0.016 80.681 22.846 22.286 61.335 20.862 82.729-0.002z" />
<glyph unicode="&#x28;" d="M495.952 785.856l-0.041-195.968-359.239 0.046v-284.299h359.28l-0.041-195.618 388.283 337.952z" />
<glyph unicode="&#x29;" d="M524.912 110.016l0.039 195.954 359.243-0.034v284.32h-359.282l0.039 195.6-388.279-337.945z" />
<glyph unicode="&#x2a;" d="M848.354 462.416l-195.961 0.030 0.039 359.25h-284.313v-359.28l-195.607 0.030 337.952-388.27z" />
<glyph unicode="&#x2b;" d="M848.354 433.458l-195.961-0.050 0.039-359.232h-284.304v359.282l-195.616-0.050 337.961 388.288z" />
<glyph unicode="&#x2c;" d="M512.48 878.016c-237.536 0-430.080-192.583-430.080-430.080 0-237.545 192.544-430.080 430.080-430.080 237.504 0 430.080 192.535 430.080 430.080 0.002 237.497-192.576 430.080-430.080 430.080zM564.816 395.591v-206.222h-104.674v206.222h-206.222v104.665h206.224l-0.009 206.208 104.681 0.023v-206.224l206.199 0.009 0.023-104.681-206.222-0.002z" />
<glyph unicode="&#x2d;" d="M512.48 878.016c-237.536 0-430.080-192.583-430.080-430.080 0-237.545 192.544-430.080 430.080-430.080 237.52 0 430.080 192.535 430.080 430.080 0.002 237.497-192.56 430.080-430.080 430.080zM771.017 500.274l0.023-104.681h-517.12v104.663l517.097 0.018z" />
<glyph unicode="&#x2e;" d="M512 934.848l168.768-305.984 343.168-65.92-238.912-255.040 43.392-346.752-316.416 148.352-316.352-148.352 43.392 346.752-238.976 255.040 343.168 65.92 168.768 305.984z" />
<glyph unicode="&#x2f;" d="M785.024 307.904l43.392-346.752-316.416 148.352-316.352-148.352 43.392 346.752-238.976 255.040 343.168 65.92 168.768 305.984 168.768-305.984 343.168-65.92-238.912-255.040zM627.968 572.288l-115.968 210.368-115.968-210.368-235.968-45.312 164.224-175.36-29.76-238.336 217.472 101.952 217.472-102.016-29.824 238.4 164.224 175.36-235.904 45.312z" />
<glyph unicode="&#x30;" d="M785.024 307.904l43.392-346.752-316.416 148.352-316.352-148.352 43.392 346.752-238.976 255.040 343.168 65.92 168.768 305.984 168.768-305.984 343.168-65.92-238.912-255.040zM627.968 572.288l-115.968 210.368v-567.424l217.472-102.016-29.824 238.4 164.224 175.36-235.904 45.312z" />
<glyph unicode="&#x31;" d="M1024 128c-106.041 0-192 85.959-192 192v285.090c0 140.738-109.943 258.128-256 285.083v69.826h-128v-69.824c-146.064-26.958-256-144.345-256-285.083v-285.093c0-106.041-85.961-192-192-192v-64h429.598c-5.209-11.424-8.11-24.119-8.11-37.49 0-49.986 40.523-90.51 90.512-90.51 49.984 0 90.51 40.523 90.51 90.51 0 13.376-2.903 26.066-8.112 37.49h429.602v64z" />
<glyph unicode="&#x32;" d="M106.667 576c-11.735 0-21.335-9.6-21.335-21.333v-170.667c0-11.733 9.6-21.333 21.335-21.333h85.248c11.733 0 29.568-4.907 39.637-10.965l219.52-148.736c10.027-6.059 18.261-1.367 18.261 10.366v512c0 11.733-8.235 16.427-18.304 10.368l-219.477-148.736c-10.069-6.057-27.904-10.965-39.637-10.965h-85.248zM512.085 503.040c10.624-7.168 18.091-18.731 18.091-32.597s-7.467-25.429-18.091-32.597l29.269-28.587c17.493 14.72 28.928 36.48 28.928 61.184s-11.435 46.464-28.928 61.184l-29.269-28.587zM627.413 615.765l-28.8-28.16c31.616-29.312 51.755-70.741 51.755-117.163s-20.139-87.893-51.755-117.163l28.8-28.075c38.613 36.523 63.061 87.936 63.061 145.237s-24.446 108.677-63.061 145.326zM713.685 699.904l-28.8-28.075c52.736-51.029 85.717-122.368 85.717-201.387s-32.939-150.272-85.717-201.387l28.8-28.075c59.733 58.197 96.981 139.477 96.981 229.461s-37.246 171.269-96.981 229.465z" />
<glyph unicode="&#x33;" d="M512 960c-282.752 0-512-229.248-512-512s229.248-512 512-512 512 229.248 512 512-229.248 512-512 512zM320 192v512l512.256-256-512.256-256z" />
<glyph unicode="&#x34;" d="M640.002 704l-256-256 256-256.002z" />
<glyph unicode="&#x35;" d="M384.002 192l256 256-256 256z" />
<glyph unicode="&#x36;" d="M256 576l256-256 256 256z" />
<glyph unicode="&#x37;" d="M768 320l-256 256-256-256z" />
<glyph unicode="&#x38;" d="M768 512l-256 256-256-256zM256 320l256-256 256 256z" />
<glyph unicode="&#x39;" d="M859.136 590.624v-285.248h-346.112v-204.512l-348.16 347.136 348.16 347.136v-204.512zM1024 448c0 282.784-229.216 512-512 512s-512-229.216-512-512 229.216-512 512-512 512 229.216 512 512z" />
<glyph unicode="&#x3a;" d="M164.864 305.376v285.248h346.080v204.512l348.192-347.136-348.16-347.136v204.512zM0 448c0-282.784 229.216-512 512-512s512 229.216 512 512-229.216 512-512 512-512-229.216-512-512z" />
<glyph unicode="&#x3b;" d="M866.773 434.645l-397.44 397.355h-341.333v-341.333l397.44-397.397c26.795-26.795 70.229-26.795 97.024 0l244.309 244.352c26.795 26.75 26.795 70.185 0 97.022zM320 554.667c-47.147 0-85.333 38.187-85.333 85.333s38.187 85.333 85.333 85.333c47.147 0.128 85.333-38.187 85.333-85.333s-38.272-85.333-85.333-85.333z" />
<glyph unicode="&#x3c;" d="M707.344 640.251h51.561v-312.702h-51.561zM548.823 640.251h51.563v-312.702h-51.563zM878.731 517.632h-471.682l-15.058 51.481h510.715zM823.376 398.709h-381.147l-15.401 51.52h420.523zM934.089 640.251c-0.482-2.731-1.305-5.904-2.61-9.317l-141.191-303.344h-323.403c-1.545 0-3.051 0.562-4.318 1.264 0 0-90.715 308.384-91.257 311.397h562.779zM936.176 721.669c-91.497 0-588.8 0-588.8 0l139.685-475.518h313.243c40.821 0 59.794 34.194 63.689 47.003l142.135 305.333c21.989 52.848 11.166 123.182-69.952 123.182v0zM482.926 8.382c0.003-39.68 32.171-71.846 71.851-71.846 39.682 0 71.851 32.169 71.851 71.851 0 0.002 0 0.004 0 0.006 0 39.682-32.169 71.851-71.851 71.851s-71.851-32.169-71.851-71.851zM720.695 8.382c0.003-39.674 32.166-71.835 71.841-71.835 39.677 0 71.841 32.164 71.841 71.841 0 0.002 0 0.004 0 0.006 0 39.676-32.164 71.841-71.841 71.841s-71.841-32.164-71.841-71.841zM885.419 87.653h-310.434c-109.97 0-153.84 104.146-155.648 108.544-0.521 1.264-0.944 2.53-1.305 3.835-0.041 0-172.213 586.29-185.525 631.486-12.549 42.606-23.070 48.67-55.415 48.67h-137.458c-21.925 0-39.634 17.751-39.634 39.616s17.71 39.634 39.634 39.634h137.456c88.446 0 116.114-53.328 131.394-105.531 11.566-39.273 170.869-581.573 184.823-629.077 4.256-9.077 29.575-57.927 81.678-57.927h310.432c21.906 0 39.634-17.71 39.634-39.634s-17.746-39.616-39.632-39.616z" />
<glyph unicode="&#x3d;" d="M812.987 576l-177.842 231.529c3.122 7.541 4.855 15.803 4.855 24.471 0 35.346-28.651 64-64 64-35.346 0-64-28.654-64-64s28.654-64 64-64c2.841 0 5.632 0.203 8.375 0.565l147.913-192.565h-440.574l147.913 192.565c2.741-0.361 5.534-0.565 8.373-0.565 35.346 0 64 28.654 64 64s-28.654 64-64 64-64-28.654-64-64c0-8.667 1.733-16.93 4.855-24.469l-177.842-231.531h-211.013v-128h64l64-512h768l64 512h64v128h-211.013zM320 64h-128v128h128v-128zM320 320h-128v128h128v-128zM576 64h-128v128h128v-128zM576 320h-128v128h128v-128zM832 64h-128v128h128v-128zM832 320h-128v128h128v-128z" />
<glyph unicode="&#x3e;" d="M1021.248 787.2l-93.248-371.2c0-4.448-0.896-8.64-2.496-12.448-3.264-7.68-9.376-13.824-17.024-17.056-3.84-1.632-8.064-2.496-12.48-2.496h-608l25.6-128h550.4c17.696 0 32-14.304 32-32s-14.304-32-32-32h-576c-17.696 0-32 14.304-32 32l-121.6 608h-102.4c-17.664 0-32 14.336-32 32s14.336 32 32 32h128c17.696 0 32-14.336 32-32l6.4-32h793.6c17.696 0 32-14.336 32-32 0-4.576-1.024-8.864-2.752-12.8zM275.2 448h108.8v320h-172.8l64-320zM576 768h-160v-320h160v320zM768 768h-160v-320h160v320zM800 768v-320h72.096l81.056 320h-153.152zM352 128c53.024 0 96-43.008 96-96s-42.976-96-96-96-96 43.008-96 96 42.976 96 96 96zM352 0c17.696 0 32 14.304 32 32s-14.304 32-32 32-32-14.304-32-32 14.304-32 32-32zM800 128c53.024 0 96-43.008 96-96s-42.976-96-96-96-96 43.008-96 96 42.976 96 96 96zM800 0c17.696 0 32 14.304 32 32s-14.304 32-32 32-32-14.304-32-32 14.304-32 32-32z" />
<glyph unicode="&#x3f;" d="M385.536 417.248c-5.696-8.224-12.64-28.832-20.864-33.888-8.224-5.024-17.504-8.544-27.808-10.496-10.336-1.984-21.024-2.848-32.064-2.528v-48.864h78.944v-193.472h63.712v319.872h-50.688c-1.792-12.192-5.536-22.4-11.232-30.624zM736 704h64c17.696 0 32 14.336 32 32v192c0 17.664-14.304 32-32 32h-64c-17.696 0-32-14.336-32-32v-192c0-17.664 14.304-32 32-32zM224 704h64c17.664 0 32 14.336 32 32v192c0 17.664-14.336 32-32 32h-64c-17.664 0-32-14.336-32-32v-192c0-17.664 14.336-32 32-32zM960 832h-64v-160c0-17.664-14.304-32-32-32h-192c-17.696 0-32 14.336-32 32v160h-256v-160c0-17.664-14.336-32-32-32h-192c-17.664 0-32 14.336-32 32v160h-64c-35.328 0-64-28.672-64-64v-768c0-35.328 28.672-64 64-64h896c35.328 0 64 28.672 64 64v768c0 35.328-28.672 64-64 64zM960 32c0-17.696-14.304-32-32-32h-832c-17.664 0-32 14.304-32 32v512c0 17.664 14.336 32 32 32h832c17.696 0 32-14.336 32-32v-512zM511.52 384.576h158.976c-29.952-36.864-54.048-74.4-72.48-118.56-18.4-44.192-20.416-90.176-23.968-137.984h68.192c0.288 21.312-6.24 44.32-1.632 68.992 4.672 24.672 11.264 49.024 19.744 73.12 8.544 24.064 19.136 46.752 31.872 68.064 12.672 21.344 27.296 39.328 43.744 53.952v55.744h-224.48v-63.328z" />
<glyph unicode="&#x40;" d="M0 149.335c0-47.145 38.185-85.335 85.335-85.335h853.335c47.145 0 85.335 38.185 85.335 85.335l-0.005 576c0 47.145-38.185 85.335-85.335 85.335l-853.33-0.005c-47.145 0-85.335-38.185-85.335-85.335v-575.995zM314.025 436.695l-195.2 196.48c-16.192 16.215-16.192 42.455 0 58.665 16.233 16.215 42.473 16.215 58.665 0l311.47-311.872c12.585-12.375 33.303-12.375 45.673 0l311.872 311.872c16.215 16.215 42.455 16.215 58.665 0 16.215-16.215 16.215-42.455 0-58.665l-195.415-196.48 195.415-195.177c16.215-16.215 16.215-42.455 0-58.665s-42.455-16.215-58.665 0l-195.2 194.985c0 0-60.992-62.080-72.087-73.175-17.298-16.878-41.193-27.328-67.218-27.328-26.455 0-50.345 10.665-67.625 27.968-11.305 11.095-71.895 72.512-71.895 72.512l-195.008-194.985c-16.192-16.215-42.432-16.215-58.665 0-16.192 16.215-16.192 42.455 0 58.665l195.218 195.2z" />
<glyph unicode="&#x41;" d="M85.333 746.667v-597.333h853.333l0.002 597.333h-853.335zM512 419.328l-276.523 242.005h553.088l-276.565-242.005zM422.912 383.915l89.088-77.911 89.088 77.909 149.248-149.246h-476.672l149.248 149.248zM170.667 252.331v352.341l187.904-164.437-187.904-187.904zM665.429 440.235l187.904 164.437v-352.341l-187.904 187.904z" />
<glyph unicode="&#x42;" d="M725.333 746.667h-426.665c-70.4 0-128-57.6-128-128v-256c0-70.4 57.6-128 128-128h42.667v-170.667l170.667 170.667h213.333c70.4 0 128 57.6 128 128l-0.002 256c0 70.4-57.6 128-128 128z" />
<glyph unicode="&#x43;" d="M297.44 335.296v317.44h-194.56c-56.32 0-102.4-46.080-102.4-102.4v-307.2c0-56.32 46.080-102.4 102.4-102.4h51.2v-153.6l153.6 153.6h256c56.32 0 102.4 46.080 102.4 102.4v93.2c-3.303-0.688-6.752-1.040-10.24-1.040h-358.4zM922.082 908.736h-460.8c-56.32 0-102.4-46.080-102.4-102.4v-409.6h358.4l153.6-153.6v153.6h51.2c56.32 0 102.4 46.080 102.4 102.4v307.2c0 56.32-46.080 102.4-102.4 102.4z" />
<glyph unicode="&#x44;" d="M384 832c0-70.692 57.308-128 128-128s128 57.308 128 128c0 70.692-57.308 128-128 128s-128-57.308-128-128zM655.529 719.529c0-70.692 57.308-128 128-128s128 57.308 128 128c0 70.692-57.308 128-128 128s-128-57.308-128-128zM832 448c0-35.346 28.654-64 64-64s64 28.654 64 64c0 35.346-28.654 64-64 64s-64-28.654-64-64zM719.529 176.471c0-35.346 28.654-64 64-64s64 28.654 64 64c0 35.346-28.654 64-64 64s-64-28.654-64-64zM448.002 64c0-35.346 28.654-64 64-64s64 28.654 64 64c0 35.346-28.654 64-64 64s-64-28.654-64-64zM176.473 176.471c0-35.346 28.654-64 64-64s64 28.654 64 64c0 35.346-28.654 64-64 64s-64-28.654-64-64zM144.473 719.529c0-53.019 42.981-96 96-96s96 42.981 96 96c0 53.019-42.981 96-96 96s-96-42.981-96-96zM56 448c0-39.765 32.235-72 72-72s72 32.235 72 72c0 39.765-32.235 72-72 72s-72-32.235-72-72z" />
<glyph unicode="&#x45;" d="M332.8 448c0 47.872 18.688 92.885 52.48 126.72 33.877 33.835 78.891 52.48 126.72 52.48v-115.2l170.667 170.667-170.667 168.533v-113.067c-77.44 0-150.315-30.165-205.141-84.949-54.827-54.784-84.992-127.616-84.992-205.184 0-75.904 24.021-132.309 80.256-188.544l78.421 78.421c-35.243 35.287-47.744 64.087-47.744 110.123zM721.877 636.587l-78.421-78.507c35.243-35.2 47.744-64 47.744-110.080 0-47.872-18.688-92.885-52.48-126.72-33.877-33.835-78.891-52.48-126.72-52.48v115.2l-170.667-170.667 170.667-168.576v113.109c77.44 0 150.315 30.165 205.141 84.949 54.827 54.83 84.992 127.662 84.992 205.186 0 75.989-24.021 132.395-80.256 188.587z" />
<glyph unicode="&#x46;" d="M810.667 533.333h-213.335v213.335h-213.333v-213.335h-213.333v-213.333h213.333v-213.333h213.333v213.333h213.335z" />
<glyph unicode="&#x47;" d="M992 576h-352v352c0 17.664-14.304 32-32 32h-192c-17.696 0-32-14.336-32-32v-352h-352c-17.696 0-32-14.336-32-32v-192c0-17.696 14.304-32 32-32h352v-352c0-17.696 14.304-32 32-32h192c17.696 0 32 14.304 32 32v352h352c17.696 0 32 14.304 32 32v192c0 17.664-14.304 32-32 32z" />
<glyph unicode="&#x48;" d="M32 576h960c17.696 0 32-14.336 32-32v-192c0-17.696-14.304-32-32-32h-960c-17.664 0-32 14.304-32 32v192c0 17.664 14.336 32 32 32z" />
<glyph unicode="&#x49;" d="M632.576 661.376c46.080-10.665 82.752-49.92 93.417-92.8 3.648-20.055 21.12-35.2 42.048-35.2 23.465 0 42.665 19.2 42.665 42.665 0 30.72-25.815 77.44-61.015 112.425-34.56 34.135-75.735 58.24-109.655 58.24-23.465 0-42.665-19.84-42.665-43.305 0.005-20.882 15.15-38.4 35.205-42.025zM46.121 102.016c-33.065-33.047-33.065-86.825 0-119.872 33.065-33.088 86.825-33.088 119.68 0l245.097 244.905c57.193-35.671 124.585-56.343 197.12-56.343 206.295 0 373.335 167.040 373.335 373.335s-167.040 373.335-373.335 373.335-373.335-167.040-373.335-373.335c0-72.32 20.713-139.945 56.343-197.12l-244.905-244.905zM341.376 544.041c0 147.2 119.488 266.665 266.665 266.665 147.2 0 266.665-119.465 266.665-266.665s-119.465-266.665-266.665-266.665c-147.177 0.023-266.665 119.488-266.665 266.665z" />
<glyph unicode="&#x4a;" d="M895.705 168l-193.481 193.481c29.168 47.927 45.968 104.215 45.968 164.432 0 174.928-151.575 326.505-326.528 326.505-174.919 0-316.736-141.824-316.736-316.768 0-174.937 151.568-326.496 326.489-326.496 58.167 0 112.64 15.751 159.479 43.113l194.528-194.537c19.040-19.040 49.904-19.040 68.921 0l48.247 48.24c19.038 19.038 12.146 43.006-6.887 62.030zM202.4 535.648c0 121.12 98.176 219.303 219.264 219.303 121.136 0 229.063-107.922 229.063-229.040s-98.194-219.303-219.312-219.303c-121.093 0-229.015 107.92-229.015 229.040z" />
<glyph unicode="&#x4b;" d="M213.333 746.667h170.667v-170.667h-170.667zM213.333 533.333h170.667v-170.665h-170.667zM213.333 320h170.667v-170.667h-170.667zM426.667 746.667h170.665v-170.667h-170.665zM426.667 533.333h170.665v-170.665h-170.665zM426.667 320h170.665v-170.667h-170.665zM640 746.667h170.667v-170.667h-170.667zM640 533.333h170.667v-170.665h-170.667zM640 320h170.667v-170.667h-170.667z" />
<glyph unicode="&#x4c;" d="M213.333 746.667h170.667v-170.667h-170.667zM426.667 746.667h384v-170.667h-384zM213.333 533.333h170.667v-170.665h-170.667zM426.667 533.333h384v-170.665h-384zM213.333 320h170.667v-170.667h-170.667zM426.667 320h384v-170.667h-384z" />
<glyph unicode="&#x4d;" d="M1024 384l-192 192v192h-128v-64l-192 192-512-512h128v-384h320v256h128v-256h320v384z" />
<glyph unicode="&#x4e;" d="M832 384.226c-64 0-128-64.226-192-64.226s-64 256-192 256-256-128-320-384c0 0 704 0 768 0 0-0.002 0 192.226-64 192.226zM0 768v-704h1024v704h-1024zM960 128h-896v576h896v-576zM704 544c0-53.019 42.981-96 96-96s96 42.981 96 96c0 53.019-42.981 96-96 96s-96-42.981-96-96z" />
<glyph unicode="&#x4f;" d="M704 448c-70.688 0-128 57.312-128 128s57.312 128 128 128 128-57.312 128-128-57.312-128-128-128zM704 640c-35.328 0-64-28.672-64-64s28.672-64 64-64 64 28.672 64 64-28.672 64-64 64zM320 448c-70.688 0-128 57.312-128 128s57.312 128 128 128 128-57.312 128-128-57.312-128-128-128zM320 640c-35.328 0-64-28.672-64-64s28.672-64 64-64 64 28.672 64 64-28.672 64-64 64zM512 64c-131.2 0-243.808 79.040-293.184 192h586.368c-49.376-112.96-161.984-192-293.184-192zM512 960c282.784 0 512-229.216 512-512s-229.216-512-512-512-512 229.216-512 512 229.216 512 512 512z" />
<glyph unicode="&#x50;" d="M512.48 806.336c-197.936 0-358.4-160.473-358.4-358.4 0-197.945 160.464-358.4 358.4-358.4 197.927 0 358.4 160.455 358.4 358.4 0.002 197.927-160.471 358.4-358.4 358.4z" />
<glyph unicode="&#x51;" d="M928 639.84h-832c-17.696 0-32-14.304-32-32v-288c0-17.696 14.304-32 32-32h32v-320c0-17.696 14.304-32 32-32h704c17.696 0 32 14.304 32 32v320h32c17.696 0 32 14.304 32 32v288c0 17.696-14.304 32-32 32zM448 31.84c0-17.696-14.304-32-32-32h-192c-17.696 0-32 14.304-32 32v256c0 17.696 14.304 32 32 32h192c17.696 0 32-14.304 32-32v-256zM448 415.84c0-17.696-14.304-32-32-32h-256c-17.696 0-32 14.304-32 32v128c0 17.696 14.304 32 32 32h256c17.696 0 32-14.304 32-32v-128zM832 31.84c0-17.696-14.304-32-32-32h-192c-17.696 0-32 14.304-32 32v256c0 17.696 14.304 32 32 32h192c17.696 0 32-14.304 32-32v-256zM896 415.84c0-17.696-14.304-32-32-32h-256c-17.696 0-32 14.304-32 32v128c0 17.696 14.304 32 32 32h256c17.696 0 32-14.304 32-32v-128zM369.888 639.872h294.4c50.464 36.192 98.176 83.296 103.84 134.624 2.752 25.056-2.624 61.76-44 94.432-22.944 18.144-46.24 27.328-69.152 27.328-73.024 0-114.336-89.536-136.672-169.536-26.688 101.984-78.208 233.12-166.688 233.12-25.824 0-51.52-11.168-76.512-33.216-49.28-43.584-54.112-88.896-49.504-119.232 10.336-67.808 78.56-126.080 144.288-167.52zM654.976 819.456c7.072 0 16.192-4.224 26.336-12.288 16.512-12.992 15.584-21.056 15.328-23.712-3.072-28-55.584-72-116.832-108.32 18.016 77.472 47.456 144.32 75.168 144.32zM321.088 867.52c8.032 7.104 19.872 15.552 30.528 15.552 39.616 0 80.352-104 104.096-205.12-74.816 39.872-152.16 96.416-159.072 141.792-0.928 6.272-3.488 23.072 24.448 47.776z" />
<glyph unicode="&#x52;" d="M853.333 746.667h-469.333c-23.467 0-53.845-15.616-67.456-34.731l-163.755-229.163c-13.611-19.115-13.611-50.389 0-69.504l163.755-229.163c13.611-19.157 43.989-34.773 67.456-34.773h469.333c23.467 0 42.667 19.2 42.667 42.667v512c0 23.467-19.2 42.667-42.667 42.667zM798.165 320l-72.832-72.832-128 128-128-128-72.832 72.832 128 128-128 128 72.832 72.832 128-128 128 128 72.832-72.832-128-128 128-128z" />
<glyph unicode="&#x53;" d="M448 192.064l256 255.936-256 255.936v-127.936h-448v-256h448zM256 960v-256h64v192h512v-896h-512v192h-64v-256h768v1024z" />
<glyph unicode="&#x54;" d="M0 439.893l520.089 520.091 503.895-503.895-520.091-520.089z" />
<glyph unicode="&#x55;" d="M288 96c17.673 0 32 14.327 32 32 0 0.007 0 0.014 0 0.021v447.961c0 0.007 0 0.011 0 0.021 0 17.673-14.327 32-32 32s-32-14.327-32-32v0-448c0-17.675 14.327-32.002 32-32.002zM480 96c17.673 0 32 14.327 32 32 0 0.007 0 0.014 0 0.021v447.961c0 0.007 0 0.011 0 0.021 0 17.673-14.327 32-32 32s-32-14.327-32-32v0-448c0-17.675 14.327-32.002 32-32.002zM672 96c17.673 0 32 14.327 32 32 0 0.007 0 0.014 0 0.021v447.961c0 0.007 0 0.011 0 0.021 0 17.673-14.327 32-32 32s-32-14.327-32-32v0-448c0-17.675 14.329-32.002 32-32.002zM703.975 830.919c0.005 0.361 0.025 0.72 0.025 1.081v64c0 35.2-28.8 64-64 64h-320c-35.2 0-64-28.8-64-64v-64c0-0.361 0.023-0.72 0.027-1.081h-256.027v-62.919h64v-704c0-70.4 57.6-128 128-128h576c70.4 0 128 57.6 128 128v704h64v62.919h-256.025zM320 895.886c0.034 0.041 0.075 0.082 0.114 0.114h319.769c0.041-0.034 0.082-0.075 0.117-0.117v-63.769c-0.034-0.041-0.075-0.082-0.117-0.114h-319.769c-0.041 0.034-0.082 0.075-0.114 0.114v63.771zM832 64c0-16.953-6.695-32.985-18.857-45.143-12.158-12.16-28.19-18.857-45.143-18.857h-576c-16.953 0-32.985 6.695-45.145 18.857-12.16 12.158-18.855 28.19-18.855 45.143v704h704v-704z" />
<glyph unicode="&#x56;" d="M0 960v-1024h1024v1024h-1024zM511.113 58.078c-52.942 0-95.847 42.905-95.847 95.847 0 52.976 42.905 95.863 95.847 95.863 52.976 0 95.863-42.905 95.863-95.863 0-52.942-42.889-95.847-95.863-95.847zM734.926 599.193c-5.017-16.846-11.895-32.837-20.805-47.922-8.857-15.104-19.559-29.424-31.966-42.871-12.441-13.518-26.062-26.487-41.029-38.912-16.709-13.824-30.139-26.112-40.192-36.779-10.121-10.667-16.981-21.061-20.53-28.825-6.709-14.32-11.726-41.216-5.394-92.416h-127.71c-1.040 85.333 10.087 113.954 23.381 141.415 13.518 27.733 38.69 57.6 75.623 88.507 16.025 13.106 28.45 25.054 37.326 35.191 8.857 10.121 15.632 19.303 20.258 27.307 7.184 11.623 10.121 30.839 10.155 44.032 0 13.858-2.457 26.693-7.202 38.4-4.779 11.76-11.639 21.863-20.514 30.379-8.891 8.551-19.337 15.207-31.419 20.002-12.066 4.779-25.531 5.616-40.448 5.616-58.299 0-93.815-38.297-106.599-123.632h-127.863c3.209 34.133 11.077 67.925 23.705 96.206 12.629 28.245 29.115 53.008 49.545 72.773 20.446 19.678 44.254 35.259 71.424 45.909 27.186 10.667 56.782 16.213 88.729 16.213 34.064 0 65.127-4.795 93.218-14.542 28.091-9.797 52.105-23.346 72.176-40.738 20.105-17.408 35.687-38.16 46.933-62.311 11.161-24.149 16.777-50.432 16.777-78.832-0.105-19.25-2.631-37.273-7.579-54.169z" />
<glyph unicode="&#x57;" d="M0 960v-1024h1024v1024h-1024zM887.467 286.857c0-51.166-38.4-94.857-89.943-94.857h-343.125l-232.533-143.838 10.939 145.202c-51.543 0-96.274 42.327-96.274 93.493v434.245c0 51.2 47.291 85.298 98.85 85.298h562.142c51.543 0 89.943-34.098 89.943-85.298v-434.245zM256 448h529.067v-102.4h-529.067v102.4zM256 669.867h529.067v-102.4h-529.067v102.4z" />
<glyph unicode="&#x58;" d="M0 21.335c0-47.145 38.185-85.335 85.335-85.335h853.335c47.145 0 85.335 38.185 85.335 85.335l-0.005 853.33c0 47.145-38.185 85.335-85.335 85.335h-853.33c-47.15 0-85.335-38.185-85.335-85.335v-853.33zM192 448c0 70.615 57.385 128 128 128 29.44 0 56.535-10.025 78.080-26.455l178.327 80.855c-0.407 3.2-0.407 6.4-0.407 9.6 0 70.615 57.367 128 128 128s128-57.385 128-128-57.367-128-128-128c-32.855 0-62.935 12.375-85.545 32.855l-171.945-78.080c1.065-6.19 1.49-12.375 1.49-18.775s-0.425-12.585-1.495-18.775l171.945-77.865c22.615 20.265 52.695 32.64 85.55 32.64 70.633 0 128-57.367 128-128s-57.367-128-128-128-128 57.367-128 128c0 3.2 0 6.4 0.425 9.6l-178.327 81.065c-21.563-16.64-48.658-26.665-78.098-26.665-70.615 0-128 57.367-128 128z" />
<glyph unicode="&#x59;" d="M0 960v-1024h1024v1024h-1024zM477.867 72.533h-341.335v341.335h341.333l0.002-341.335zM477.867 482.133h-341.335v341.335h341.333l0.002-341.335zM887.467 72.533h-341.335v341.335h341.333l0.002-341.335zM887.467 482.133h-341.335v341.335h341.333l0.002-341.335z" />
<glyph unicode="&#x5a;" d="M0 960v-1024h1024v1024h-1024zM955.733 4.267h-887.465v887.465h887.467l-0.002-887.465zM136.533 823.467h204.8v-204.8h-204.8zM409.6 823.467h477.867v-204.8h-477.867zM136.533 550.4h204.8v-204.8h-204.8zM409.6 550.4h477.867v-204.8h-477.867zM136.533 277.333h204.8v-204.8h-204.8zM409.6 277.333h477.867v-204.8h-477.867z" />
<glyph unicode="&#x5b;" d="M1024 64v384h-256c0 141.12 114.752 256 256 256v128c-211.744 0-384-172.256-384-384v-384h384zM384 64v384h-256c0 141.12 114.752 256 256 256v128c-211.744 0-384-172.256-384-384v-384h384z" />
<glyph unicode="&#x5c;" d="M0 832v-384h256c0-141.12-114.752-256-256-256v-128c211.744 0 384 172.256 384 384v384h-384zM640 832v-384h256c0-141.12-114.752-256-256-256v-128c211.744 0 384 172.256 384 384v384h-384z" />
<glyph unicode="&#x5d;" d="M369.376 795.136h285.248v-346.080h204.512l-347.136-348.192-347.136 348.16h204.512zM512 960c-282.784 0-512-229.216-512-512s229.216-512 512-512 512 229.216 512 512-229.216 512-512 512z" />
<glyph unicode="&#x5e;" d="M654.688 100.832h-285.248v346.112h-204.512l347.136 348.16 347.136-348.16h-204.512zM512.032-64.032c282.784 0 512 229.216 512 512s-229.216 512-512 512-512-229.216-512-512 229.248-512 512-512z" />
<glyph unicode="&#x5f;" d="M424 61.143l-372.571 372q-21.143 21.143-21.143 51.714t21.143 51.714l372.571 372q21.143 21.143 51.714 21.143t51.714-21.143l42.857-42.857q21.143-21.143 21.143-51.714t-21.143-51.714l-277.714-277.714 277.714-277.143q21.143-21.714 21.143-52t-21.143-51.429l-42.857-42.857q-21.143-21.143-51.714-21.143t-51.714 21.143z" horiz-adv-x="658" />
<glyph unicode="&#x60;" d="M628 484.571q0-29.714-21.143-52l-372.571-372q-21.143-21.143-51.429-21.143t-51.429 21.143l-43.429 42.857q-21.143 22.286-21.143 52t21.143 51.429l277.714 277.714-277.714 277.143q-21.143 22.286-21.143 52t21.143 51.429l43.429 42.857q20.571 21.714 51.429 21.714t51.429-21.714l372.571-372q21.143-21.143 21.143-51.429z" horiz-adv-x="658" />
<glyph unicode="&#x61;" d="M920.571 265.143q0-30.286-21.143-51.429l-42.857-42.857q-21.714-21.714-52-21.714-30.857 0-51.429 21.714l-277.714 277.143-277.714-277.143q-20.571-21.714-51.429-21.714t-51.429 21.714l-42.857 42.857q-21.714 20.571-21.714 51.429t21.714 52l372 372q21.143 21.143 51.429 21.143 29.714 0 52-21.143l371.429-372q21.714-21.714 21.714-52z" horiz-adv-x="951" />
<glyph unicode="&#x62;" d="M920.571 557.714q0-30.286-21.143-51.429l-372-372q-21.714-21.714-52-21.714-30.857 0-51.429 21.714l-372 372q-21.714 20.571-21.714 51.429t21.714 52l42.286 42.857q22.286 21.143 52 21.143 30.286 0 51.429-21.143l277.714-277.714 277.714 277.714q21.143 21.143 51.429 21.143 29.714 0 52-21.143l42.857-42.857q21.143-22.286 21.143-52z" horiz-adv-x="951" />
<glyph unicode="&#x63;" d="M358.286 649.143q0-7.429-5.714-13.143l-224.571-224.571 224.571-224.571q5.714-5.714 5.714-13.143t-5.714-13.143l-28.571-28.571q-5.714-5.714-13.143-5.714t-13.143 5.714l-266.286 266.286q-5.714 5.714-5.714 13.143t5.714 13.143l266.286 266.286q5.714 5.714 13.143 5.714t13.143-5.714l28.571-28.571q5.714-5.714 5.714-13.143z" horiz-adv-x="366" />
<glyph unicode="&#x64;" d="M340 411.429q0-7.429-5.714-13.143l-266.286-266.286q-5.714-5.714-13.143-5.714t-13.143 5.714l-28.571 28.571q-5.714 5.714-5.714 13.143t5.714 13.143l224.571 224.571-224.571 224.571q-5.714 5.714-5.714 13.143t5.714 13.143l28.571 28.571q5.714 5.714 13.143 5.714t13.143-5.714l266.286-266.286q5.714-5.714 5.714-13.143z" horiz-adv-x="366" />
<glyph unicode="&#x65;" d="M614.286 283.429q0-7.429-5.714-13.143l-28.571-28.571q-5.714-5.714-13.143-5.714t-13.143 5.714l-224.571 224.571-224.571-224.571q-5.714-5.714-13.143-5.714t-13.143 5.714l-28.571 28.571q-5.714 5.714-5.714 13.143t5.714 13.143l266.286 266.286q5.714 5.714 13.143 5.714t13.143-5.714l266.286-266.286q5.714-5.714 5.714-13.143z" horiz-adv-x="658" />
<glyph unicode="&#x66;" d="M614.286 539.429q0-7.429-5.714-13.143l-266.286-266.286q-5.714-5.714-13.143-5.714t-13.143 5.714l-266.286 266.286q-5.714 5.714-5.714 13.143t5.714 13.143l28.571 28.571q5.714 5.714 13.143 5.714t13.143-5.714l224.571-224.571 224.571 224.571q5.714 5.714 13.143 5.714t13.143-5.714l28.571-28.571q5.714-5.714 5.714-13.143z" horiz-adv-x="658" />
<glyph unicode="&#x67;" d="M512 832c-212.096 0-384-171.904-384-384 0-212.064 171.904-384 384-384 212.064 0 384 171.936 384 384 0 212.096-171.936 384-384 384zM638.016 649.984c26.496 0 48-28.672 48-64s-21.504-64-48-64-48 28.672-48 64 21.472 64 48 64zM382.016 649.984c26.496 0 48-28.672 48-64s-21.504-64-48-64-48 28.672-48 64 21.472 64 48 64zM509.76 311.712c-148 0-193.856-77.408-193.856-77.408s42.656 133.76 194.080 133.76c152.32 0 190.016-138.336 190.016-138.336s-42.24 81.984-190.24 81.984z" />
<glyph unicode="&#x68;" d="M512-64q-104 0-199.001 40.501t-163.499 109.001-109.001 163.499-40.501 199.001 40.501 199.001 109.001 163.499 163.499 109.001 199.001 40.501 199.001-40.501 163.499-109.001 109.001-163.499 40.501-199.001-40.501-199.001-109.001-163.499-163.499-109.001-199.001-40.501zM320 544q0 13.001-9.499 22.501t-22.501 9.499-22.501-9.499-9.499-22.501v-96h-64v96q0 13.001-9.499 22.501t-22.501 9.499-22.501-9.499-9.499-22.501v-128q0-12 7.499-20.501t18.501-10.501q2-1.001 6-1.001h96v-96q0-13.001 9.499-22.501t22.501-9.499 22.501 9.499 9.499 22.501v256zM640 512q0 26-19.001 45.001t-45.001 19.001h-128q-26 0-45.001-19.001t-19.001-45.001v-192q0-27.001 19.001-45.499t45.001-18.501h128q26 0 45.001 18.501t19.001 45.499v192zM864 576q-13.001 0-22.501-9.499t-9.499-22.501v-96h-64v96q0 13.001-9.499 22.501t-22.501 9.499-22.501-9.499-9.499-22.501v-128q0-12 7.499-20.501t18.501-10.501q2-1.001 6-1.001h96v-96q0-13.001 9.499-22.501t22.501-9.499 22.501 9.499 9.499 22.501v256q0 13.001-9.499 22.501t-22.501 9.499zM448 512h128v-192h-128v192z" />
<glyph unicode="&#x69;" d="M320 896h-256v-256h256v256zM384 960v0-384h-384v384h384zM128 832h128v-128h-128zM960 896h-256v-256h256v256zM1024 960v0-384h-384v384h384zM768 832h128v-128h-128zM320 256h-256v-256h256v256zM384 320v0-384h-384v384h384zM128 192h128v-128h-128zM448 960h64v-64h-64zM512 896h64v-64h-64zM448 832h64v-64h-64zM512 768h64v-64h-64zM448 704h64v-64h-64zM512 640h64v-64h-64zM448 576h64v-64h-64zM448 448h64v-64h-64zM512 384h64v-64h-64zM448 320h64v-64h-64zM512 256h64v-64h-64zM448 192h64v-64h-64zM512 128h64v-64h-64zM448 64h64v-64h-64zM512 0h64v-64h-64zM960 448h64v-64h-64zM64 448h64v-64h-64zM128 512h64v-64h-64zM0 512h64v-64h-64zM256 512h64v-64h-64zM320 448h64v-64h-64zM384 512h64v-64h-64zM576 448h64v-64h-64zM640 512h64v-64h-64zM704 448h64v-64h-64zM768 512h64v-64h-64zM832 448h64v-64h-64zM896 512h64v-64h-64zM960 320h64v-64h-64zM576 320h64v-64h-64zM640 384h64v-64h-64zM704 320h64v-64h-64zM832 320h64v-64h-64zM896 384h64v-64h-64zM960 192h64v-64h-64zM576 192h64v-64h-64zM640 256h64v-64h-64zM768 256h64v-64h-64zM832 192h64v-64h-64zM896 256h64v-64h-64zM960 64h64v-64h-64zM640 128h64v-64h-64zM704 64h64v-64h-64zM768 128h64v-64h-64zM832 64h64v-64h-64zM640 0h64v-64h-64zM768 0h64v-64h-64zM896 0h64v-64h-64z" />
<glyph unicode="&#xd7;" d="M983.072 743.232l-294.304-296.096 294.304-294.336c12.32-12.288 12.32-32.224 0-44.544l-133.632-133.6c-12.256-12.32-32.192-12.32-44.512 0l-293.824 293.824-292.064-293.824c-12.288-12.32-32.224-12.32-44.544 0l-133.6 133.6c-12.288 12.32-12.288 32.256 0 44.544l292.064 293.824-292.032 292.032c-12.288 12.288-12.288 32.224 0 44.544l133.6 133.6c12.288 12.32 32.224 12.32 44.544 0l291.52-291.52 294.368 296.096c12.32 12.32 32.256 12.32 44.512 0l133.632-133.6c12.256-12.32 12.256-32.256-0.032-44.544z" />
</font>
</defs>
</svg>
